<?xml version="1.0" standalone="no"?>
<!DOCTYPE svg PUBLIC "-//W3C//DTD SVG 20010904//EN"
 "http://www.w3.org/TR/2001/REC-SVG-20010904/DTD/svg10.dtd">
<svg version="1.0" xmlns="http://www.w3.org/2000/svg"
 width="2260.000000pt" height="198.000000pt" viewBox="0 0 2260.000000 198.000000"
 preserveAspectRatio="xMidYMid meet">

<g transform="translate(0.000000,198.000000) scale(0.100000,-0.100000)"
fill="#000000" stroke="none">
<path d="M0 990 l0 -990 11300 0 11300 0 0 990 0 990 -11300 0 -11300 0 0
-990z m668 469 c4 -27 -22 -51 -46 -42 -34 13 -41 42 -17 67 21 21 59 6 63
-25z m169 3 c4 -18 1 -29 -12 -38 -23 -17 -59 -3 -63 27 -8 49 62 60 75 11z
m168 8 c9 -15 -3 -47 -21 -54 -42 -16 -76 51 -37 73 18 10 46 0 58 -19z m146
20 c22 -13 25 -52 5 -69 -17 -14 -55 1 -57 22 -2 23 3 42 14 49 15 10 15 10
38 -2z m524 -20 c9 -15 -3 -47 -21 -54 -42 -16 -76 51 -37 73 18 10 46 0 58
-19z m3180 0 c9 -15 -3 -47 -21 -54 -42 -16 -76 51 -37 73 18 10 46 0 58 -19z
m1673 -11 c4 -27 -22 -51 -46 -42 -34 13 -41 42 -17 67 21 21 59 6 63 -25z
m1153 31 c22 -13 25 -52 5 -69 -17 -14 -55 1 -57 22 -2 23 3 42 14 49 15 10
15 10 38 -2z m2010 0 c22 -13 25 -52 5 -69 -17 -14 -55 1 -57 22 -2 23 3 42
14 49 15 10 15 10 38 -2z m3034 -20 c9 -15 -3 -47 -21 -54 -42 -16 -76 51 -37
73 18 10 46 0 58 -19z m816 20 c22 -13 25 -52 5 -69 -17 -14 -55 1 -57 22 -2
23 3 42 14 49 15 10 15 10 38 -2z m5377 -31 c4 -27 -22 -51 -46 -42 -34 13
-41 42 -17 67 21 21 59 6 63 -25z m1823 31 c22 -13 25 -52 5 -69 -17 -14 -55
1 -57 22 -2 23 3 42 14 49 15 10 15 10 38 -2z m-15070 -160 c25 -14 25 -56 -1
-70 -40 -22 -74 46 -36 72 14 10 14 10 37 -2z m187 -31 c4 -27 -22 -51 -46
-42 -34 13 -41 42 -17 67 21 21 59 6 63 -25z m167 11 c7 -21 -2 -47 -18 -53
-25 -9 -57 12 -57 37 0 43 62 57 75 16z m170 0 c9 -15 -3 -47 -21 -54 -42 -16
-76 51 -37 73 18 10 46 0 58 -19z m10382 -8 c4 -18 1 -29 -12 -38 -23 -17 -59
-3 -63 27 -8 49 62 60 75 11z m314 28 c25 -14 25 -56 -1 -70 -40 -22 -74 46
-36 72 14 10 14 10 37 -2z m187 -31 c4 -27 -22 -51 -46 -42 -34 13 -41 42 -17
67 21 21 59 6 63 -25z m-16590 22 c8 -5 12 -21 10 -37 -2 -22 -9 -30 -27 -32
-29 -4 -53 22 -44 46 11 30 36 39 61 23z m1016 -13 c15 -25 -3 -52 -37 -56
-21 -3 -28 2 -33 24 -12 46 44 72 70 32z m160 6 c19 -19 20 -25 3 -48 -8 -11
-23 -17 -38 -14 -31 4 -39 46 -13 65 23 17 29 16 48 -3z m164 7 c8 -5 12 -21
10 -37 -2 -22 -9 -30 -27 -32 -29 -4 -53 22 -44 46 11 30 36 39 61 23z m172
-6 c26 -32 -13 -81 -47 -59 -24 15 -27 38 -8 58 20 20 39 20 55 1z m174 -7
c16 -26 -4 -53 -40 -53 -23 0 -30 5 -32 24 -7 45 48 66 72 29z m326 8 c19 -24
8 -61 -19 -64 -29 -4 -53 22 -44 46 12 33 43 41 63 18z m170 0 c19 -23 8 -61
-18 -64 -44 -7 -67 32 -36 62 19 20 38 20 54 2z m334 -2 c19 -19 20 -25 3 -48
-19 -26 -61 -18 -65 13 -3 15 3 30 14 38 23 17 29 16 48 -3z m166 2 c19 -24 8
-61 -19 -64 -29 -4 -53 22 -44 46 12 33 43 41 63 18z m504 -2 c19 -19 20 -25
3 -48 -8 -11 -23 -17 -38 -14 -31 4 -39 46 -13 65 23 17 29 16 48 -3z m166 2
c19 -24 8 -61 -19 -64 -29 -4 -53 22 -44 46 12 33 43 41 63 18z m170 -1 c26
-32 -13 -81 -47 -59 -24 15 -27 38 -8 58 20 20 39 20 55 1z m2508 3 c22 -22
14 -57 -13 -64 -45 -11 -71 29 -39 60 19 19 36 20 52 4z m336 -4 c19 -19 20
-25 3 -48 -8 -11 -23 -17 -38 -14 -31 4 -39 46 -13 65 23 17 29 16 48 -3z
m166 2 c19 -24 8 -61 -19 -64 -29 -4 -53 22 -44 46 12 33 43 41 63 18z m504
-2 c19 -19 20 -25 3 -48 -8 -11 -23 -17 -38 -14 -31 4 -39 46 -13 65 23 17 29
16 48 -3z m164 7 c8 -5 12 -21 10 -37 -2 -22 -9 -30 -27 -32 -29 -4 -53 22
-44 46 11 30 36 39 61 23z m172 -5 c19 -23 8 -61 -18 -64 -44 -7 -67 32 -36
62 19 20 38 20 54 2z m174 -8 c15 -25 -3 -52 -37 -56 -21 -3 -28 2 -33 24 -12
46 44 72 70 32z m160 6 c19 -19 20 -25 3 -48 -8 -11 -23 -17 -38 -14 -31 4
-39 46 -13 65 23 17 29 16 48 -3z m1340 0 c19 -19 20 -25 3 -48 -8 -11 -23
-17 -38 -14 -31 4 -39 46 -13 65 23 17 29 16 48 -3z m164 7 c8 -5 12 -21 10
-37 -2 -22 -9 -30 -27 -32 -29 -4 -53 22 -44 46 11 30 36 39 61 23z m172 -5
c19 -23 8 -61 -18 -64 -44 -7 -67 32 -36 62 19 20 38 20 54 2z m174 -8 c15
-25 -3 -52 -37 -56 -21 -3 -28 2 -33 24 -12 46 44 72 70 32z m160 6 c19 -19
20 -25 3 -48 -19 -26 -61 -18 -65 13 -3 15 3 30 14 38 23 17 29 16 48 -3z
m510 -6 c15 -25 -3 -52 -37 -56 -21 -3 -28 2 -33 24 -12 46 44 72 70 32z m160
6 c19 -19 20 -25 3 -48 -8 -11 -23 -17 -38 -14 -31 4 -39 46 -13 65 23 17 29
16 48 -3z m166 2 c19 -24 8 -61 -19 -64 -29 -4 -53 22 -44 46 12 33 43 41 63
18z m1514 -8 c15 -25 -3 -52 -37 -56 -21 -3 -28 2 -33 24 -12 46 44 72 70 32z
m160 6 c19 -19 20 -25 3 -48 -8 -11 -23 -17 -38 -14 -31 4 -39 46 -13 65 23
17 29 16 48 -3z m164 7 c8 -5 12 -21 10 -37 -2 -22 -9 -30 -27 -32 -29 -4 -53
22 -44 46 11 30 36 39 61 23z m172 -6 c26 -32 -13 -81 -47 -59 -24 15 -27 38
-8 58 20 20 39 20 55 1z m174 -7 c16 -26 -4 -53 -40 -53 -23 0 -30 5 -32 24
-7 45 48 66 72 29z m324 13 c8 -5 12 -21 10 -37 -2 -22 -9 -30 -27 -32 -29 -4
-53 22 -44 46 11 30 36 39 61 23z m346 -13 c15 -25 -3 -52 -37 -56 -21 -3 -28
2 -33 24 -12 46 44 72 70 32z m160 6 c19 -19 20 -25 3 -48 -8 -11 -23 -17 -38
-14 -31 4 -39 46 -13 65 23 17 29 16 48 -3z m670 0 c19 -19 20 -25 3 -48 -19
-26 -61 -18 -65 13 -3 15 3 30 14 38 23 17 29 16 48 -3z m166 2 c19 -24 8 -61
-19 -64 -29 -4 -53 22 -44 46 12 33 43 41 63 18z m170 -1 c26 -32 -13 -81 -47
-59 -24 15 -27 38 -8 58 20 20 39 20 55 1z m2680 1 c19 -23 8 -61 -18 -64 -44
-7 -67 32 -36 62 19 20 38 20 54 2z m174 -8 c15 -25 -3 -52 -37 -56 -21 -3
-28 2 -33 24 -12 46 44 72 70 32z m160 6 c19 -19 20 -25 3 -48 -19 -26 -61
-18 -65 13 -3 15 3 30 14 38 23 17 29 16 48 -3z m1504 4 c22 -22 14 -57 -13
-64 -45 -11 -71 29 -39 60 19 19 36 20 52 4z m336 -4 c19 -19 20 -25 3 -48
-19 -26 -61 -18 -65 13 -3 15 3 30 14 38 23 17 29 16 48 -3z m166 2 c19 -24 8
-61 -19 -64 -29 -4 -53 22 -44 46 12 33 43 41 63 18z m504 -2 c19 -19 20 -25
3 -48 -19 -26 -61 -18 -65 13 -3 15 3 30 14 38 23 17 29 16 48 -3z m164 7 c8
-5 12 -21 10 -37 -2 -22 -9 -30 -27 -32 -29 -4 -53 22 -44 46 11 30 36 39 61
23z m172 -5 c19 -23 8 -61 -18 -64 -44 -7 -67 32 -36 62 19 20 38 20 54 2z
m174 -8 c15 -25 -3 -52 -37 -56 -21 -3 -28 2 -33 24 -12 46 44 72 70 32z m160
6 c19 -19 20 -25 3 -48 -19 -26 -61 -18 -65 13 -3 15 3 30 14 38 23 17 29 16
48 -3z m-15740 -160 c19 -19 20 -25 3 -48 -8 -11 -23 -17 -38 -14 -31 4 -39
46 -13 65 23 17 29 16 48 -3z m670 0 c19 -19 20 -25 3 -48 -8 -11 -23 -17 -38
-14 -31 4 -39 46 -13 65 23 17 29 16 48 -3z m10390 -6 c15 -25 -3 -52 -37 -56
-21 -3 -28 2 -33 24 -12 46 44 72 70 32z m160 6 c19 -19 20 -25 3 -48 -8 -11
-23 -17 -38 -14 -31 4 -39 46 -13 65 23 17 29 16 48 -3z m510 -6 c16 -26 -4
-53 -40 -53 -23 0 -30 5 -32 24 -7 45 48 66 72 29z m-16576 -17 c4 -25 -19
-51 -45 -51 -22 0 -38 46 -23 65 20 25 64 15 68 -14z m160 17 c32 -32 -18 -87
-53 -58 -28 23 -12 70 25 70 9 0 21 -5 28 -12z m842 -7 c5 -11 7 -26 4 -35 -8
-21 -42 -30 -59 -16 -15 13 -20 51 -8 63 13 14 53 6 63 -12z m1008 -10 c4 -25
-19 -51 -45 -51 -22 0 -38 46 -23 65 20 25 64 15 68 -14z m160 17 c32 -32 -18
-87 -53 -58 -28 23 -12 70 25 70 9 0 21 -5 28 -12z m1342 -3 c15 -19 4 -52
-21 -60 -38 -12 -65 35 -37 63 16 16 43 15 58 -3z m338 -14 c4 -25 -19 -51
-45 -51 -22 0 -38 46 -23 65 20 25 64 15 68 -14z m160 17 c32 -32 -18 -87 -53
-58 -28 23 -12 70 25 70 9 0 21 -5 28 -12z m172 -7 c5 -11 7 -26 4 -35 -8 -21
-42 -30 -59 -16 -15 13 -20 51 -8 63 13 14 53 6 63 -12z m1678 -10 c4 -25 -19
-51 -45 -51 -22 0 -38 46 -23 65 20 25 64 15 68 -14z m160 17 c32 -32 -18 -87
-53 -58 -28 23 -12 70 25 70 9 0 21 -5 28 -12z m510 -20 c4 -35 -37 -60 -63
-38 -32 27 -9 73 35 68 19 -2 26 -10 28 -30z m500 0 c5 -46 -59 -63 -71 -19
-7 30 12 53 41 49 21 -2 28 -9 30 -30z m2010 0 c5 -46 -59 -63 -71 -19 -7 30
12 53 41 49 21 -2 28 -9 30 -30z m840 3 c4 -25 -19 -51 -45 -51 -22 0 -38 46
-23 65 20 25 64 15 68 -14z m670 -3 c4 -35 -37 -60 -63 -38 -32 27 -9 73 35
68 19 -2 26 -10 28 -30z m1502 13 c5 -11 7 -26 4 -35 -8 -21 -42 -30 -59 -16
-15 13 -20 51 -8 63 13 14 53 6 63 -12z m838 -13 c5 -46 -59 -63 -71 -19 -7
30 12 53 41 49 21 -2 28 -9 30 -30z m170 3 c4 -25 -19 -51 -45 -51 -22 0 -38
46 -23 65 20 25 64 15 68 -14z m500 -3 c5 -44 -56 -63 -72 -22 -10 27 13 55
42 52 21 -2 28 -9 30 -30z m330 20 c32 -32 -18 -87 -53 -58 -28 23 -12 70 25
70 9 0 21 -5 28 -12z m672 -3 c15 -19 4 -52 -21 -60 -38 -12 -65 35 -37 63 16
16 43 15 58 -3z m2348 -17 c5 -46 -59 -63 -71 -19 -7 30 12 53 41 49 21 -2 28
-9 30 -30z m670 0 c5 -44 -56 -63 -72 -22 -10 27 13 55 42 52 21 -2 28 -9 30
-30z m332 13 c5 -11 7 -26 4 -35 -8 -21 -42 -30 -59 -16 -15 13 -20 51 -8 63
13 14 53 6 63 -12z m168 -13 c5 -46 -59 -63 -71 -19 -7 30 12 53 41 49 21 -2
28 -9 30 -30z m170 0 c4 -35 -37 -60 -63 -38 -32 27 -9 73 35 68 19 -2 26 -10
28 -30z m670 3 c4 -25 -19 -51 -45 -51 -22 0 -38 46 -23 65 20 25 64 15 68
-14z m160 17 c32 -32 -18 -87 -53 -58 -28 23 -12 70 25 70 9 0 21 -5 28 -12z
m510 -20 c4 -35 -37 -60 -63 -38 -32 27 -9 73 35 68 19 -2 26 -10 28 -30z
m500 0 c5 -46 -59 -63 -71 -19 -7 30 12 53 41 49 21 -2 28 -9 30 -30z m-19921
-166 c4 -18 1 -29 -12 -38 -23 -17 -59 -3 -63 27 -8 49 62 60 75 11z m168 8
c9 -15 -3 -47 -21 -54 -42 -16 -76 51 -37 73 18 10 46 0 58 -19z m670 0 c9
-15 -3 -47 -21 -54 -42 -16 -76 51 -37 73 18 10 46 0 58 -19z m1003 -11 c4
-27 -22 -51 -46 -42 -34 13 -41 42 -17 67 21 21 59 6 63 -25z m1007 11 c9 -15
-3 -47 -21 -54 -42 -16 -76 51 -37 73 18 10 46 0 58 -19z m146 20 c22 -13 25
-52 5 -69 -17 -14 -55 1 -57 22 -2 23 3 42 14 49 15 10 15 10 38 -2z m187 -31
c4 -27 -22 -51 -46 -42 -34 13 -41 42 -17 67 21 21 59 6 63 -25z m167 11 c7
-21 -2 -47 -18 -53 -25 -9 -57 12 -57 37 0 43 62 57 75 16z m670 0 c9 -15 -3
-47 -21 -54 -42 -16 -76 51 -37 73 18 10 46 0 58 -19z m665 11 c5 -11 7 -26 4
-35 -8 -21 -42 -30 -59 -16 -15 13 -20 51 -8 63 13 14 53 6 63 -12z m670 0 c5
-11 7 -26 4 -35 -8 -21 -42 -30 -59 -16 -15 13 -20 51 -8 63 13 14 53 6 63
-12z m338 -22 c4 -27 -22 -51 -46 -42 -34 13 -41 42 -17 67 21 21 59 6 63 -25z
m670 0 c4 -27 -22 -51 -46 -42 -34 13 -41 42 -17 67 21 21 59 6 63 -25z m483
31 c22 -13 25 -52 5 -69 -17 -14 -55 1 -57 22 -2 23 3 42 14 49 15 10 15 10
38 -2z m2010 0 c22 -13 25 -52 5 -69 -17 -14 -55 1 -57 22 -2 23 3 42 14 49
15 10 15 10 38 -2z m857 -31 c4 -27 -22 -51 -46 -42 -34 13 -41 42 -17 67 21
21 59 6 63 -25z m670 0 c4 -27 -22 -51 -46 -42 -34 13 -41 42 -17 67 21 21 59
6 63 -25z m1507 11 c9 -15 -3 -47 -21 -54 -42 -16 -76 51 -37 73 18 10 46 0
58 -19z m816 20 c22 -13 25 -52 5 -69 -17 -14 -55 1 -57 22 -2 23 3 42 14 49
15 10 15 10 38 -2z m670 0 c22 -13 25 -52 5 -69 -17 -14 -55 1 -57 22 -2 23 3
42 14 49 15 10 15 10 38 -2z m356 -28 c4 -18 1 -29 -12 -38 -23 -17 -59 -3
-63 27 -8 49 62 60 75 11z m168 8 c9 -15 -3 -47 -21 -54 -42 -16 -76 51 -37
73 18 10 46 0 58 -19z m146 20 c22 -13 25 -52 5 -69 -17 -14 -55 1 -57 22 -2
23 3 42 14 49 15 10 15 10 38 -2z m187 -31 c4 -27 -22 -51 -46 -42 -34 13 -41
42 -17 67 21 21 59 6 63 -25z m167 11 c7 -21 -2 -47 -18 -53 -25 -9 -57 12
-57 37 0 43 62 57 75 16z m1333 18 c32 -32 -18 -87 -53 -58 -28 23 -12 70 25
70 9 0 21 -5 28 -12z m672 -3 c15 -19 4 -52 -21 -60 -38 -12 -65 35 -37 63 16
16 43 15 58 -3z m321 5 c22 -13 25 -52 5 -69 -17 -14 -55 1 -57 22 -2 23 3 42
14 49 15 10 15 10 38 -2z m670 0 c22 -13 25 -52 5 -69 -17 -14 -55 1 -57 22
-2 23 3 42 14 49 15 10 15 10 38 -2z m687 -31 c4 -27 -22 -51 -46 -42 -34 13
-41 42 -17 67 21 21 59 6 63 -25z m670 0 c4 -27 -22 -51 -46 -42 -34 13 -41
42 -17 67 21 21 59 6 63 -25z m670 0 c4 -27 -22 -51 -46 -42 -34 13 -41 42
-17 67 21 21 59 6 63 -25z m483 31 c22 -13 25 -52 5 -69 -17 -14 -55 1 -57 22
-2 23 3 42 14 49 15 10 15 10 38 -2z m-15070 -160 c22 -13 25 -52 5 -69 -17
-14 -55 1 -57 22 -2 23 3 42 14 49 15 10 15 10 38 -2z m187 -31 c4 -27 -22
-51 -46 -42 -34 13 -41 42 -17 67 21 21 59 6 63 -25z m169 3 c4 -18 1 -29 -12
-38 -23 -17 -59 -3 -63 27 -8 49 62 60 75 11z m168 8 c9 -15 -3 -47 -21 -54
-42 -16 -76 51 -37 73 18 10 46 0 58 -19z m10382 -8 c4 -18 1 -29 -12 -38 -23
-17 -59 -3 -63 27 -8 49 62 60 75 11z m668 8 c7 -21 -2 -47 -18 -53 -25 -9
-57 12 -57 37 0 43 62 57 75 16z m-16085 6 c19 -24 8 -61 -19 -64 -29 -4 -53
22 -44 46 12 33 43 41 63 18z m504 -2 c19 -19 20 -25 3 -48 -8 -11 -23 -17
-38 -14 -31 4 -39 46 -13 65 23 17 29 16 48 -3z m1006 2 c19 -23 8 -61 -18
-64 -44 -7 -67 32 -36 62 19 20 38 20 54 2z m844 -8 c15 -25 -3 -52 -37 -56
-21 -3 -28 2 -33 24 -12 46 44 72 70 32z m670 0 c16 -26 -4 -53 -40 -53 -23 0
-30 5 -32 24 -7 45 48 66 72 29z m660 6 c19 -19 20 -25 3 -48 -8 -11 -23 -17
-38 -14 -31 4 -39 46 -13 65 23 17 29 16 48 -3z m1676 2 c19 -23 8 -61 -18
-64 -44 -7 -67 32 -36 62 19 20 38 20 54 2z m670 -1 c19 -23 4 -65 -23 -65
-43 0 -60 35 -31 64 19 20 38 20 54 1z m498 6 c8 -5 12 -21 10 -37 -2 -22 -9
-30 -27 -32 -29 -4 -53 22 -44 46 11 30 36 39 61 23z m2010 0 c8 -5 12 -21 10
-37 -2 -22 -9 -30 -27 -32 -29 -4 -53 22 -44 46 11 30 36 39 61 23z m842 -5
c19 -23 8 -61 -18 -64 -44 -7 -67 32 -36 62 19 20 38 20 54 2z m670 -1 c19
-23 4 -65 -23 -65 -43 0 -60 35 -31 64 19 20 38 20 54 1z m1504 -1 c19 -19 20
-25 3 -48 -8 -11 -23 -17 -38 -14 -31 4 -39 46 -13 65 23 17 29 16 48 -3z
m834 7 c8 -5 12 -21 10 -37 -2 -22 -9 -30 -27 -32 -29 -4 -53 22 -44 46 11 30
36 39 61 23z m672 -5 c19 -24 8 -61 -19 -64 -29 -4 -53 22 -44 46 12 33 43 41
63 18z m344 -8 c15 -25 -3 -52 -37 -56 -21 -3 -28 2 -33 24 -12 46 44 72 70
32z m3004 13 c8 -5 12 -21 10 -37 -2 -22 -9 -30 -27 -32 -29 -4 -53 22 -44 46
11 30 36 39 61 23z m672 -5 c19 -24 8 -61 -19 -64 -29 -4 -53 22 -44 46 12 33
43 41 63 18z m670 0 c19 -23 8 -61 -18 -64 -44 -7 -67 32 -36 62 19 20 38 20
54 2z m670 0 c19 -23 8 -61 -18 -64 -44 -7 -67 32 -36 62 19 20 38 20 54 2z
m670 -1 c19 -23 4 -65 -23 -65 -43 0 -60 35 -31 64 19 20 38 20 54 1z m498 6
c8 -5 12 -21 10 -37 -2 -22 -9 -30 -27 -32 -29 -4 -53 22 -44 46 11 30 36 39
61 23z m1007 -7 c19 -20 16 -43 -7 -58 -38 -23 -78 35 -42 61 23 17 29 16 49
-3z m175 -29 c0 -15 -7 -26 -20 -30 -41 -13 -70 43 -33 64 25 13 53 -5 53 -34z
m-15746 -131 c19 -19 20 -25 3 -48 -8 -11 -23 -17 -38 -14 -31 4 -39 46 -13
65 23 17 29 16 48 -3z m10390 -6 c15 -25 -3 -52 -37 -56 -21 -3 -28 2 -33 24
-12 46 44 72 70 32z m160 6 c19 -19 20 -25 3 -48 -19 -26 -61 -18 -65 13 -3
15 3 30 14 38 23 17 29 16 48 -3z m164 7 c8 -5 12 -21 10 -37 -2 -22 -9 -30
-27 -32 -29 -4 -53 22 -44 46 11 30 36 39 61 23z m172 -6 c26 -32 -13 -81 -47
-59 -24 15 -27 38 -8 58 20 20 39 20 55 1z m-16572 -27 c5 -46 -59 -63 -71
-19 -7 30 12 53 41 49 21 -2 28 -9 30 -30z m170 0 c6 -47 -59 -62 -73 -17 -9
27 13 51 44 47 20 -2 27 -9 29 -30z m160 20 c32 -32 -18 -87 -53 -58 -28 23
-12 70 25 70 9 0 21 -5 28 -12z m172 -7 c5 -11 7 -26 4 -35 -8 -21 -42 -30
-59 -16 -15 13 -20 51 -8 63 13 14 53 6 63 -12z m838 -13 c5 -46 -59 -63 -71
-19 -7 30 12 53 41 49 21 -2 28 -9 30 -30z m170 0 c4 -34 -27 -54 -58 -38 -39
21 -16 73 30 68 19 -2 26 -10 28 -30z m162 17 c15 -19 4 -52 -21 -60 -38 -12
-65 35 -37 63 16 16 43 15 58 -3z m338 -17 c5 -46 -59 -63 -71 -19 -7 30 12
53 41 49 21 -2 28 -9 30 -30z m170 0 c6 -47 -59 -62 -73 -17 -9 27 13 51 44
47 20 -2 27 -9 29 -30z m160 20 c32 -32 -18 -87 -53 -58 -28 23 -12 70 25 70
9 0 21 -5 28 -12z m842 -7 c5 -11 7 -26 4 -35 -8 -21 -42 -30 -59 -16 -15 13
-20 51 -8 63 13 14 53 6 63 -12z m168 -13 c5 -46 -59 -63 -71 -19 -7 30 12 53
41 49 21 -2 28 -9 30 -30z m332 17 c15 -19 4 -52 -21 -60 -38 -12 -65 35 -37
63 16 16 43 15 58 -3z m338 -17 c6 -47 -59 -62 -73 -17 -9 27 13 51 44 47 20
-2 27 -9 29 -30z m160 20 c32 -32 -18 -87 -53 -58 -28 23 -12 70 25 70 9 0 21
-5 28 -12z m172 -7 c5 -11 7 -26 4 -35 -8 -21 -42 -30 -59 -16 -15 13 -20 51
-8 63 13 14 53 6 63 -12z m168 -13 c5 -46 -59 -63 -71 -19 -7 30 12 53 41 49
21 -2 28 -9 30 -30z m170 0 c4 -34 -27 -54 -58 -38 -39 21 -16 73 30 68 19 -2
26 -10 28 -30z m1340 0 c6 -47 -59 -62 -73 -17 -9 27 13 51 44 47 20 -2 27 -9
29 -30z m670 0 c4 -34 -27 -54 -58 -38 -39 21 -16 73 30 68 19 -2 26 -10 28
-30z m670 0 c4 -34 -27 -54 -58 -38 -39 21 -16 73 30 68 19 -2 26 -10 28 -30z
m162 17 c15 -19 4 -52 -21 -60 -38 -12 -65 35 -37 63 16 16 43 15 58 -3z m170
-4 c5 -11 7 -26 4 -35 -8 -21 -42 -30 -59 -16 -15 13 -20 51 -8 63 13 14 53 6
63 -12z m1678 -13 c4 -34 -27 -54 -58 -38 -39 21 -16 73 30 68 19 -2 26 -10
28 -30z m162 17 c15 -19 4 -52 -21 -60 -38 -12 -65 35 -37 63 16 16 43 15 58
-3z m170 -4 c5 -11 7 -26 4 -35 -8 -21 -42 -30 -59 -16 -15 13 -20 51 -8 63
13 14 53 6 63 -12z m498 7 c32 -32 -18 -87 -53 -58 -28 23 -12 70 25 70 9 0
21 -5 28 -12z m172 -7 c5 -11 7 -26 4 -35 -8 -21 -42 -30 -59 -16 -15 13 -20
51 -8 63 13 14 53 6 63 -12z m168 -13 c5 -46 -59 -63 -71 -19 -7 30 12 53 41
49 21 -2 28 -9 30 -30z m1840 0 c5 -46 -59 -63 -71 -19 -7 30 12 53 41 49 21
-2 28 -9 30 -30z m170 0 c4 -34 -27 -54 -58 -38 -39 21 -16 73 30 68 19 -2 26
-10 28 -30z m162 17 c15 -19 4 -52 -21 -60 -38 -12 -65 35 -37 63 16 16 43 15
58 -3z m338 -17 c5 -46 -59 -63 -71 -19 -7 30 12 53 41 49 21 -2 28 -9 30 -30z
m670 0 c5 -44 -56 -63 -72 -22 -10 27 13 55 42 52 21 -2 28 -9 30 -30z m502
13 c5 -11 7 -26 4 -35 -8 -21 -42 -30 -59 -16 -15 13 -20 51 -8 63 13 14 53 6
63 -12z m168 -13 c5 -46 -59 -63 -71 -19 -7 30 12 53 41 49 21 -2 28 -9 30
-30z m170 0 c4 -34 -27 -54 -58 -38 -39 21 -16 73 30 68 19 -2 26 -10 28 -30z
m162 17 c15 -19 4 -52 -21 -60 -38 -12 -65 35 -37 63 16 16 43 15 58 -3z
m2518 -17 c6 -47 -59 -62 -73 -17 -9 27 13 51 44 47 20 -2 27 -9 29 -30z m160
20 c32 -32 -18 -87 -53 -58 -28 23 -12 70 25 70 9 0 21 -5 28 -12z m172 -7 c5
-11 7 -26 4 -35 -8 -21 -42 -30 -59 -16 -15 13 -20 51 -8 63 13 14 53 6 63
-12z m500 0 c5 -11 7 -26 4 -35 -8 -21 -42 -30 -59 -16 -15 13 -20 51 -8 63
13 14 53 6 63 -12z m168 -13 c5 -46 -59 -63 -71 -19 -7 30 12 53 41 49 21 -2
28 -9 30 -30z m170 0 c4 -34 -27 -54 -58 -38 -39 21 -16 73 30 68 19 -2 26
-10 28 -30z m162 17 c15 -19 4 -52 -21 -60 -38 -12 -65 35 -37 63 16 16 43 15
58 -3z m170 -4 c5 -11 7 -26 4 -35 -8 -21 -42 -30 -59 -16 -15 13 -20 51 -8
63 13 14 53 6 63 -12z m338 -13 c6 -47 -59 -62 -73 -17 -9 27 13 51 44 47 20
-2 27 -9 29 -30z m670 0 c4 -34 -27 -54 -58 -38 -39 21 -16 73 30 68 19 -2 26
-10 28 -30z m670 0 c4 -34 -27 -54 -58 -38 -39 21 -16 73 30 68 19 -2 26 -10
28 -30z m162 17 c15 -19 4 -52 -21 -60 -38 -12 -65 35 -37 63 16 16 43 15 58
-3z m170 -4 c5 -11 7 -26 4 -35 -8 -21 -42 -30 -59 -16 -15 13 -20 51 -8 63
13 14 53 6 63 -12z m500 4 c14 -17 5 -51 -16 -59 -22 -8 -54 11 -54 32 0 38
46 56 70 27z m168 -14 c5 -32 -23 -54 -49 -40 -11 5 -19 18 -19 27 0 45 62 56
68 13z m-16240 -163 c5 -46 -59 -63 -71 -19 -7 30 12 53 41 49 21 -2 28 -9 30
-30z m170 0 c6 -47 -59 -62 -73 -17 -9 27 13 51 44 47 20 -2 27 -9 29 -30z
m162 17 c15 -19 4 -52 -21 -60 -38 -12 -65 35 -37 63 16 16 43 15 58 -3z
m10548 3 c32 -32 -18 -87 -53 -58 -28 23 -12 70 25 70 9 0 21 -5 28 -12z"/>
</g>
</svg>
